<svg width="187" height="223" viewBox="0 0 187 223" fill="none" xmlns="http://www.w3.org/2000/svg">
<path d="M1.07248 53.4852L102.334 0.479572C102.908 0.178772 103.593 0.175316 104.171 0.470305L151.925 24.8569C153.237 25.5271 153.399 27.3381 152.226 28.2301L132.575 43.1735C132.079 43.5505 131.436 43.675 130.835 43.5104L113.087 38.6449C112.582 38.5063 112.042 38.5717 111.584 38.8272L43.8333 76.6313C43.1399 77.0183 42.7411 77.7787 42.817 78.5692L44.4435 95.4962C44.5087 96.1748 44.9151 96.7734 45.5216 97.0845L118.69 134.613C120.161 135.368 120.133 137.48 118.642 138.196L76.1118 158.608C75.5245 158.89 74.8369 158.868 74.2687 158.549L1.02227 117.503C0.39095 117.149 0 116.482 0 115.758V55.2572C0 54.513 0.413175 53.8304 1.07248 53.4852Z" fill="url(#paint0_linear_126_122)"/>
<path d="M185.931 169.34L85.1478 222.341C84.5714 222.644 83.8835 222.648 83.304 222.35L35.7761 197.966C34.4682 197.295 34.3068 195.49 35.4749 194.598L55.0332 179.655C55.53 179.276 56.1757 179.15 56.7785 179.316L74.4291 184.178C74.9367 184.317 75.4789 184.251 75.9382 183.994L143.369 146.194C144.06 145.806 144.457 145.047 144.382 144.259L142.762 127.326C142.697 126.649 142.292 126.051 141.687 125.739L68.8562 88.2094C67.3893 87.4536 67.4173 85.3467 68.9036 84.6301L111.233 64.2204C111.822 63.9364 112.513 63.9583 113.083 64.2792L185.981 105.321C186.611 105.675 187 106.342 187 107.064V167.57C187 168.313 186.588 168.994 185.931 169.34Z" fill="url(#paint1_linear_126_122)"/>
<defs>
<linearGradient id="paint0_linear_126_122" x1="77.3793" y1="0" x2="77.3793" y2="159.057" gradientUnits="userSpaceOnUse">
<stop stop-color="#06B6D4"/>
<stop offset="1" stop-color="#2563EB"/>
</linearGradient>
<linearGradient id="paint1_linear_126_122" x1="109.979" y1="222.824" x2="109.979" y2="63.7671" gradientUnits="userSpaceOnUse">
<stop stop-color="#06B6D4"/>
<stop offset="1" stop-color="#2563EB"/>
</linearGradient>
</defs>
</svg>
